<?xml version="1.0" encoding="utf-8"?>
<!-- Generator: Adobe Illustrator 16.0.0, SVG Export Plug-In . SVG Version: 6.00 Build 0)  -->
<!DOCTYPE svg PUBLIC "-//W3C//DTD SVG 1.1//EN" "http://www.w3.org/Graphics/SVG/1.1/DTD/svg11.dtd">
<svg version="1.1" xmlns="http://www.w3.org/2000/svg" xmlns:xlink="http://www.w3.org/1999/xlink" x="0px" y="0px" width="512px"
	 height="512px" viewBox="0 0 512 512" enable-background="new 0 0 512 512" xml:space="preserve">
<g id="Ebene_1">
	<g>
		<path fill="#F8BB47" d="M76.788,181.727c0.12-1.624,1.684-1.924,2.706-2.525c29.284-16.655,58.625-33.311,87.907-49.966
			c37.04-20.925,74.018-41.849,110.998-62.895c2.345-1.323,4.148-1.383,6.554,0.061c34.994,20.263,69.989,40.406,105.043,60.549
			c14.01,8.057,28.14,16.054,42.151,24.171c1.323,0.722,3.006,1.203,3.427,3.006c-0.481,0.12-1.022,0.06-1.443,0.301
			c-8.779,5.11-17.559,10.282-26.398,15.393c-7.696,4.45-15.392,8.839-23.088,13.228c-0.181-0.06-0.361-0.06-0.541,0
			c-3.548-2.104-7.035-4.209-10.583-6.253c-29.464-17.136-58.926-34.273-88.388-51.41c-0.842-0.481-1.804-1.443-2.706-1.022
			c-1.203,0.541-0.541,1.984-0.541,3.006c-0.061,18.158-0.061,36.256-0.061,54.416c-0.902-1.022-0.481-2.285-0.481-3.487
			c0-17.136,0-34.273-0.06-51.409c0-0.842,0.481-1.984-0.481-2.466c-0.902-0.421-1.624,0.482-2.345,0.903
			c-10.583,6.013-21.167,12.085-31.749,18.098c-18.339,10.402-36.677,20.745-55.016,31.146
			c-21.467,12.206-42.872,24.412-64.277,36.678C110.521,201.449,93.685,191.588,76.788,181.727z"/>
		<path fill="#EC6737" d="M230.235,446.652c-3.608-1.022-6.554-3.367-9.681-5.171c-13.228-7.516-26.335-15.212-39.503-22.848
			c-1.385-0.781-2.225-1.623-2.225-3.487c0.061-57.784,0.061-115.567,0.061-173.41c0-0.121,0-0.18,0.058-0.302
			c0.784-0.6,1.505-1.322,2.345-1.804c15.214-8.538,30.486-17.076,45.758-25.614c3.066-1.744,3.127-1.684,3.127,1.804
			c0,18.098,0.06,36.257,0.06,54.356c0.481,1.383,1.864,1.744,2.946,2.345c4.329,2.465,8.718,4.931,13.047,7.336
			c11.847,6.614,23.752,13.228,35.597,19.781c0,2.225,0,4.39,0,6.614c0.061,17.256,0.061,34.515,0.121,51.771l0.06-0.06
			c-0.662-0.181-1.383-0.241-1.984-0.542c-7.756-4.509-15.513-9.019-23.329-13.528c-7.938-4.63-15.936-9.139-23.812-13.829
			c-2.345-1.383-2.826-0.722-2.766,1.744c0.121,5.592,0.061,11.184,0.061,16.835C230.235,381.353,230.235,414.003,230.235,446.652z"
			/>
		<path fill="#F29340" d="M230.235,270.236c0-18.099-0.06-36.258-0.06-54.356c0-3.487-0.061-3.547-3.127-1.804
			c-15.272,8.478-30.484,17.016-45.758,25.614c-0.84,0.481-1.561,1.203-2.345,1.804c-3.365,0.542-5.893,2.707-8.718,4.269
			c-13.769,7.637-27.478,15.395-41.247,23.151c-0.481,0.301-1.083,0.421-1.624,0.662c0-19.422,0-38.844,0-58.205
			c21.405-12.207,42.871-24.473,64.277-36.678c18.339-10.402,36.677-20.745,55.016-31.147c10.582-6.013,21.167-12.025,31.749-18.098
			c0.781-0.421,1.503-1.384,2.345-0.902c0.962,0.481,0.481,1.624,0.481,2.465c0,17.136,0,34.273,0.06,51.409
			c0,1.143-0.421,2.405,0.481,3.487c0.06,0.181,0.06,0.361,0.06,0.602c0,19.661,0.061,39.264,0.061,58.925
			c-1.263-0.12-2.345,0.482-3.367,1.083c-11.604,6.794-23.151,13.59-34.815,20.325C239.314,265.306,234.985,268.192,230.235,270.236
			z"/>
		<path fill="#EC6737" d="M281.886,182.388c0-0.18,0-0.42-0.061-0.601c0-18.159,0-36.257,0.061-54.416
			c0-1.022-0.662-2.406,0.541-3.007c0.902-0.42,1.864,0.542,2.706,1.023c29.462,17.136,58.924,34.273,88.388,51.41
			c3.547,2.044,7.035,4.148,10.583,6.253c0,17.797,0,35.656,0,53.454c0,1.624-0.181,2.946-1.804,3.608
			c-0.541,0-0.962-0.121-1.202-0.662c-0.181-1.263-1.143-1.143-1.984-1.083c-0.481-0.06-0.842-0.24-1.022-0.721
			c-0.181-1.984-1.624-1.744-3.006-1.804l0,0c-0.121-0.721-0.241-1.503-1.203-0.601c-0.541,0.06-0.962-0.18-1.203-0.662
			c-0.18-1.202-1.082-1.082-1.924-1.082c-10.402-5.953-20.806-11.905-31.208-17.857
			C320.307,204.575,301.126,193.512,281.886,182.388z"/>
		<path fill="#F29340" d="M230.235,446.652c0-32.648-0.06-65.239-0.06-97.888c0-5.592,0.06-11.184-0.061-16.835
			c-0.06-2.465,0.421-3.126,2.766-1.744c7.937,4.69,15.874,9.2,23.812,13.829c7.754,4.51,15.513,9.019,23.329,13.529
			c0.602,0.361,1.323,0.361,1.984,0.541c-0.06,2.285-0.241,4.57-0.241,6.915c0,16.415-0.06,32.829,0,49.306
			c0,1.864-0.361,3.187-2.104,4.209c-15.693,9.019-31.328,18.158-47.021,27.237C231.979,446.111,231.257,446.772,230.235,446.652z"
			/>
		<path fill="#F8BB47" d="M230.235,270.236c4.75-2.044,9.079-4.93,13.528-7.516c11.667-6.674,23.211-13.53,34.815-20.324
			c1.022-0.603,2.044-1.203,3.367-1.083c10.462,5.833,20.984,11.605,31.446,17.439c5.952,3.307,11.845,6.674,17.797,9.981
			c0.661,0.361,1.563,0.541,1.744,1.503c-3.367,1.924-6.794,3.848-10.162,5.772c-13.648,7.876-27.297,15.813-40.886,23.75
			c-11.845-6.614-23.752-13.228-35.597-19.782c-4.389-2.405-8.718-4.871-13.047-7.335
			C232.099,271.98,230.716,271.619,230.235,270.236z"/>
		<path fill="#EC6737" d="M127.356,211.311c0,19.421,0,38.843,0,58.205c-8.057-4.029-15.513-9.019-23.329-13.469
			c-8.419-4.811-16.717-9.801-25.195-14.552c-2.104-1.202-2.946-2.645-2.946-5.051c0.06-17.256,0-34.454,0.06-51.71
			c0-1.083-0.241-2.225,0.902-3.006C93.685,191.588,110.521,201.449,127.356,211.311z"/>
		<path fill="#F29340" d="M281.886,299.759c13.648-7.937,27.237-15.813,40.886-23.75c3.367-1.924,6.734-3.848,10.162-5.772
			c0.06,2.766,0.18,5.592,0.241,8.358c0,15.693,0,31.386,0.06,47.079c0,1.866-0.301,3.128-2.104,4.15
			c-16.114,9.26-32.108,18.64-48.222,27.959c-0.241,0.121-0.541,0.181-0.842,0.301c-0.06-17.256-0.06-34.515-0.12-51.771
			C281.886,304.148,281.886,301.923,281.886,299.759z"/>
		<path fill="#F29340" d="M384.704,183.11c7.696-4.389,15.393-8.778,23.089-13.228c8.778-5.11,17.559-10.282,26.397-15.393
			c0.421-0.241,0.962-0.241,1.443-0.301c0.541,1.022,0.421,2.165,0.421,3.247c0,17.017-0.06,34.033,0.06,51.048
			c0,2.346-0.601,3.789-2.766,5.052c-15.214,8.778-30.366,17.677-45.578,26.516c-0.902,0.541-1.744,1.383-3.006,1.083
			C384.704,221.772,384.704,202.411,384.704,183.11z"/>
		<path fill="#EC6837" d="M384.704,183.11c0,19.301,0,38.663,0,57.963c-1.022,0.301-1.684-0.361-2.405-0.961
			c1.684-0.662,1.804-1.985,1.804-3.608c-0.06-17.797,0-35.656,0-53.454C384.283,183.05,384.463,183.05,384.704,183.11z"/>
		<path fill="#EC6837" d="M375.144,235.902c1.323,0,2.826-0.181,3.006,1.804C376.948,237.345,375.865,236.924,375.144,235.902z"/>
		<path fill="#EC6837" d="M379.112,238.427c0.902-0.06,1.804-0.18,1.984,1.083C380.375,239.269,379.593,239.089,379.112,238.427z"/>
		<path fill="#EC6837" d="M370.755,233.557c0.842-0.06,1.744-0.18,1.924,1.083C371.957,234.459,371.236,234.219,370.755,233.557z"/>
		<path fill="#EC6837" d="M373.881,235.301c0.962-0.842,1.082-0.12,1.203,0.602C374.723,235.722,374.302,235.481,373.881,235.301z"
			/>
	</g>
</g>
<g id="Ebene_2">
</g>
<g id="Ebene_3">
</g>
</svg>
